<svg width="560" height="662" viewBox="0 0 560 662" fill="none" xmlns="http://www.w3.org/2000/svg">
<path fill="fillColor" fill-rule="evenodd" clip-rule="evenodd" d="M553.583 92.5888C486.271 51.6808 413.835 28.1831 360.634 15.1031C359.801 14.8902 358.968 14.6949 358.153 14.4997C358.153 14.4997 358.152 14.4997 358.117 14.4997C347.853 12.0151 338.333 9.92086 329.7 8.14611C329.044 8.02188 328.405 7.8799 327.767 7.75566C327.572 7.72017 327.377 7.68467 327.182 7.63143C313.762 4.93381 302.753 3.10582 294.882 1.91673V1.86349C288.678 0.905123 284.263 0.319455 281.923 0.035495H281.09C281.09 0.035495 280.984 0.035495 280.878 0.035495C280.736 0.035495 280.683 0.0177475 279.991 0C279.3 0 279.247 0.0177475 279.087 0.035495C279.016 0.035495 278.945 0.035495 278.892 0.035495H278.041C275.701 0.319455 271.269 0.905123 265.082 1.86349V1.91673C257.264 3.10582 246.309 4.93381 232.96 7.61368C232.587 7.68467 232.215 7.75566 231.825 7.8444C231.346 7.93314 230.868 8.03962 230.389 8.12836C220.834 10.0806 210.162 12.4588 198.621 15.2984C145.491 28.3783 73.4281 51.8582 6.3997 92.5888L0 96.4932V395.876L1.9855 399.088C2.67688 400.206 70.6803 510.259 236.381 631.687C251.325 642.478 270.276 655.93 280.08 662C283.891 659.64 289.103 656.161 294.9 652.15C481.52 522.93 557.27 400.277 558.014 399.088L560 395.876V96.4755L553.6 92.571L553.583 92.5888ZM533.338 388.156C520.503 407.572 444.664 515.956 279.991 630.037C268.415 622.015 261.909 617.897 244.731 602.812C159.425 523.8 128.508 450.325 128.508 450.325C128.508 450.325 101.385 396.036 105.125 359.529C108.866 323.023 176.196 319.278 176.196 319.278C315.535 319.278 460.477 365.155 460.477 365.155L488.522 430.679C488.522 430.679 501.605 402.602 522.187 333.316C542.751 264.048 478.24 238.775 478.24 238.775L379.124 199.447L381.925 244.383L280.931 255.617C195.838 157.314 59.3168 205.995 59.3168 205.995C122.906 162.922 173.395 168.548 180.876 169.489C188.357 170.429 239.785 182.586 239.785 182.586C217.341 182.586 214.54 198.506 214.54 198.506C235.105 189.135 248.205 197.565 248.205 197.565C250.085 225.642 282.81 229.387 282.81 229.387C327.696 237.817 335.177 205.978 335.177 205.978L361.361 214.408L392.225 172.275L116.825 68.6474C197.876 37.749 269.142 28.0233 280.009 26.7455C294.829 28.4848 422.149 45.9661 533.355 111.525V388.138L533.338 388.156ZM287.667 193.803L317.592 202.517C316.191 208.782 311.671 211.923 305.767 214.017C299.846 216.111 289.759 211.231 285.593 205.303C281.409 199.376 287.685 193.803 287.685 193.803H287.667ZM307.061 421.557L280.009 338.09L252.939 421.557H165.275L236.186 473.078L209.08 556.544L279.991 504.988L350.902 556.544L323.796 473.078L394.707 421.557H307.044H307.061Z" />
</svg>
